<svg width="210" height="52" fill="none" xmlns="http://www.w3.org/2000/svg"><g style="mix-blend-mode:hard-light" filter="url(#filter0_b_0_1)"><path d="M1 20.03L13.65 1M1 20.03V51m0-30.97h25.615M13.65 1H38M13.65 1v32.836M38 1L26.615 20.03M38 1v32.836M26.615 20.03V51M1 51h25.615M1 51l12.65-17.164M26.615 51L38 33.836m0 0H13.65" stroke="#fff"/></g><path d="M51.88 46.2v-5.076h10.116l1.458-1.458V38.64l-.36.36h-8.406l-3.708-3.708V23.268l3.708-3.708h10.134l3.708 3.708v19.224L64.822 46.2H51.88zm.792-.756H64.39l3.366-3.402V23.646l-3.312-3.33h-9.396l-3.276 3.312v11.25l3.312 3.33h7.758l1.422-1.422v3.222l-1.926 1.908h-9.666v3.528zm4.194-10.746l-1.584-1.584v-7.74l1.548-1.548h5.868l1.566 1.566v7.002l-2.322 2.304h-5.076zm.306-.792h4.482l1.8-1.8v-6.372l-1.116-1.098h-5.166l-1.098 1.098v7.074l1.098 1.098zm30.49-14.346l3.709 3.708v5.13l-3.708 3.708H77.87v.702l1.098 1.098h12.15V39H76.485l-3.708-3.708V23.268l3.708-3.708h11.178zm-2.123 4.302l1.53 1.53v1.368l-1.206 1.224h-8.82v-2.556l1.566-1.566h6.93zm1.746-3.51h-10.44l-3.312 3.312v11.268l3.294 3.294H90.29v-3.51h-11.7l-1.548-1.548V31.35H87.32l3.258-3.276v-4.446l-3.294-3.276zm-2.106 4.302h-6.21l-1.098 1.098v1.44h7.668l.756-.756v-.684l-1.116-1.098zM99.055 39l-3.708-3.708V23.268l3.708-3.708h11.25l3.708 3.708v12.024L110.305 39h-11.25zm.414-.792h10.458l3.294-3.276V23.628l-3.294-3.276H99.433l-3.294 3.294v11.25l3.33 3.312zm1.764-3.51l-1.566-1.566v-7.74l1.53-1.53h6.966l1.548 1.53v7.776l-1.548 1.53h-6.93zm.306-.792h6.282l1.098-1.098v-7.056l-1.098-1.098h-6.282l-1.098 1.098v7.056l1.098 1.098z" fill="#fff"/><path d="M118.258 39V13.8h14.994l3.708 3.708v17.784L133.252 39h-14.994zm5.094-5.094h7.434l1.098-1.098V19.992l-1.098-1.098h-7.434v15.012zm-3.078 3.114h11.934l2.718-2.736V18.552l-2.718-2.736h-11.934V37.02zm1.116-1.116V16.932h10.314l2.124 2.088v14.796l-2.124 2.088H121.39zM141.191 39v-5.076h3.492v-9.018l-.27-.27h-3.186V19.56h4.554l1.224 1.44 1.386-1.44h7.002l3.942 3.942-3.924 3.816-2.484-2.664h-2.052l-1.098 1.098v8.19h3.492V39h-12.078zm1.854-1.98h8.37v-1.116h-3.636V24.582l1.872-1.872h4.464l1.584 1.764.846-.792-1.926-2.07h-5.454l-1.998 1.998-1.836-1.998h-2.286v1.098h1.962l1.656 1.818v11.376h-3.618v1.116zM165.571 39l-3.708-3.708v-5.13l3.708-3.708h9.792v-.702l-1.098-1.098h-12.15V19.56h14.634l3.708 3.708v12.024L176.749 39h-11.178zm1.566-3.078l-2.16-2.124V31.35l1.926-1.908h10.62v4.212l-2.304 2.268h-8.082zm-.504 1.116h9.09l2.916-2.916v-9.81l-2.79-2.79h-11.628v1.116h11.124l2.178 2.142v3.582h-11.034l-2.61 2.574v3.33l2.754 2.772zm1.422-3.132h6.21l1.098-1.098v-1.44h-7.668l-.756.756v.684l1.116 1.098zm16.378-14.346h5.094v13.248l1.098 1.098h2.7l1.098-1.098V20.64h5.094v12.168l1.098 1.098h2.7l1.098-1.098V19.56h5.094v15.732L205.799 39h-6.966l-1.854-1.836L195.107 39h-6.966l-3.708-3.708V19.56zm1.998 1.962v12.78l2.79 2.79h5.256l2.502-2.502 2.502 2.502h5.256l2.79-2.79v-12.78h-1.116v12.312l-2.178 2.142h-4.374l-2.322-2.304V22.458h-1.116v11.214l-2.322 2.304h-4.374l-2.178-2.142V21.522h-1.116z" fill="#97188B"/><defs><filter id="filter0_b_0_1" x="-3.5" y="-3.5" width="46" height="59" filterUnits="userSpaceOnUse" color-interpolation-filters="sRGB"><feFlood flood-opacity="0" result="BackgroundImageFix"/><feGaussianBlur in="BackgroundImageFix" stdDeviation="2"/><feComposite in2="SourceAlpha" operator="in" result="effect1_backgroundBlur_0_1"/><feBlend in="SourceGraphic" in2="effect1_backgroundBlur_0_1" result="shape"/></filter></defs></svg>